<svg xmlns="http://www.w3.org/2000/svg" xmlns:xlink="http://www.w3.org/1999/xlink" height="800" width="800" viewBox="0 0 512 512" xmlns:v="https://vecta.io/nano"><path d="M213.64 237.003a8.73 8.73 0 0 1-3.427-11.74l-22.923-12.734c-1.624 2.725-4.511 4.267-7.496 4.267-1.441 0-2.907-.358-4.254-1.109l-38.096-21.316c-4.083-2.292-5.61-7.357-3.544-11.504l-22.947-12.749a8.72 8.72 0 0 1-7.351 4.045c-1.441 0-2.907-.358-4.254-1.109l-34.154-19.11v213.361l182.262-111.382-33.816-18.92z" fill="#ff6469"/><path d="M408.398 174.162c-2.901 0-5.704-1.461-7.351-4.045L378.1 182.866c2.066 4.147.539 9.212-3.544 11.504l-38.096 21.316c-1.347.751-2.814 1.109-4.254 1.109-2.985 0-5.872-1.542-7.496-4.267l-22.923 12.734a8.73 8.73 0 0 1-3.427 11.74l-33.814 18.919 182.261 111.382v-213.36l-34.154 19.11c-1.347.751-2.813 1.109-4.255 1.109z" fill="#b4e173"/><path d="M111.228 169.694c-.084.15-.186.281-.276.423l22.947 12.749.189-.382c2.349-4.204 7.674-5.712 11.882-3.359l38.096 21.316c4.207 2.362 5.712 7.674 3.355 11.886-.039.071-.089.131-.131.201l22.923 12.734c.026-.048.046-.098.072-.146 2.344-4.204 7.662-5.712 11.882-3.359L256 240.688V38.691L74.849 139.331l33.023 18.478c4.209 2.362 5.714 7.674 3.356 11.885z" fill="#ffcd73"/><path d="M256.001 450.882v-26.193a8.73 8.73 0 0 1-8.731-8.731v-43.656a8.73 8.73 0 0 1 8.731-8.731v-26.193a8.73 8.73 0 0 1-8.731-8.731V284.99a8.73 8.73 0 0 1 8.731-8.731v-16.831c-.381 0-.756-.026-1.128-.074-.026-.003-.052-.011-.079-.015-.344-.048-.688-.114-1.027-.204-.064-.017-.126-.044-.189-.062l-.88-.297c-.092-.037-.179-.087-.27-.128l-.692-.329-4.283-2.397L65.192 367.304l182.076 101.154v-8.845c.001-4.826 3.911-8.731 8.733-8.731z" fill="#d75055"/><path d="M260.264 258.32c-.226.126-.46.225-.692.329l-.27.128c-.289.118-.584.212-.88.297l-.189.062c-.341.091-.683.156-1.027.204-.026.003-.052.011-.079.015-.373.048-.747.074-1.119.074l-.009 16.831a8.73 8.73 0 0 1 8.731 8.731v43.656a8.73 8.73 0 0 1-8.731 8.731v26.193a8.73 8.73 0 0 1 8.731 8.731v43.656a8.73 8.73 0 0 1-8.731 8.731v26.193a8.73 8.73 0 0 1 8.731 8.731v8.845l182.076-101.154-182.26-111.381-4.282 2.397z" fill="#a0c869"/><path d="M289.834 221.758c4.216-2.344 9.528-.844 11.882 3.359.027.048.046.097.072.146l22.923-12.734c-.041-.069-.092-.13-.131-.201-2.357-4.212-.852-9.525 3.355-11.886l38.096-21.316c4.207-2.344 9.525-.836 11.882 3.359.07.126.126.254.189.382l22.947-12.749c-.091-.142-.193-.274-.276-.423-2.357-4.212-.852-9.525 3.355-11.886l33.023-18.478-181.15-100.64v201.997l33.833-18.93z" fill="#ffb969"/><g fill="#bec8dc"><path d="M241.155 26.961L256 18.716l14.845 8.245a8.63 8.63 0 0 0 4.229 1.1c3.07 0 6.045-1.62 7.64-4.493 2.344-4.212.823-9.532-3.393-11.869L260.24 1.1a8.71 8.71 0 0 0-8.476 0l-19.082 10.599c-4.216 2.337-5.739 7.657-3.393 11.869 2.334 4.22 7.65 5.754 11.866 3.393zm-75.762 40.842a8.65 8.65 0 0 0 4.234-1.1l35.768-19.875a8.73 8.73 0 0 0 3.389-11.869c-2.337-4.212-7.648-5.747-11.873-3.393l-35.768 19.875a8.73 8.73 0 0 0-3.389 11.869c1.594 2.873 4.569 4.493 7.639 4.493zM93.86 107.545a8.65 8.65 0 0 0 4.234-1.1l35.768-19.875a8.73 8.73 0 0 0 3.389-11.869c-2.341-4.212-7.648-5.747-11.873-3.393L89.609 91.183a8.73 8.73 0 0 0-3.389 11.869c1.595 2.873 4.571 4.493 7.64 4.493zM39 159.838a8.73 8.73 0 0 0 8.731-8.731V134.42l14.589-8.109a8.73 8.73 0 0 0 3.389-11.869c-2.337-4.212-7.657-5.747-11.873-3.393l-19.078 10.599c-2.771 1.535-4.489 4.459-4.489 7.631v21.828A8.73 8.73 0 0 0 39 159.838zm0 167.828a8.73 8.73 0 0 0 8.731-8.731v-41.959a8.731 8.731 0 1 0-17.462 0v41.959A8.73 8.73 0 0 0 39 327.666zm0-83.91a8.73 8.73 0 0 0 8.731-8.731v-41.959a8.731 8.731 0 1 0-17.462 0v41.959A8.73 8.73 0 0 0 39 243.756zm23.321 141.933l-14.589-8.109v-16.695a8.731 8.731 0 1 0-17.462 0v21.828a8.73 8.73 0 0 0 4.489 7.631l19.078 10.607c1.342.751 2.797 1.1 4.234 1.1 3.07 0 6.045-1.62 7.64-4.485 2.343-4.221.826-9.533-3.39-11.877zm143.069 79.484l-35.768-19.875c-4.22-2.353-9.528-.819-11.873 3.393a8.73 8.73 0 0 0 3.389 11.869l35.768 19.875c1.342.751 2.801 1.1 4.234 1.1 3.07 0 6.045-1.62 7.64-4.493a8.73 8.73 0 0 0-3.39-11.869zm-71.533-39.742l-35.768-19.875c-4.22-2.353-9.537-.819-11.873 3.393a8.73 8.73 0 0 0 3.389 11.869l35.768 19.875c1.342.751 2.801 1.1 4.234 1.1 3.07 0 6.045-1.62 7.64-4.493a8.73 8.73 0 0 0-3.39-11.869zm136.988 59.608L256 493.284l-14.845-8.245c-4.216-2.353-9.532-.819-11.869 3.393-2.344 4.212-.823 9.532 3.393 11.869L251.76 510.9c1.317.733 2.775 1.1 4.238 1.1s2.921-.367 4.238-1.1l19.082-10.599c4.216-2.337 5.739-7.657 3.393-11.869s-7.65-5.746-11.866-3.393zm143.062-79.484l-35.765 19.875c-4.216 2.344-5.734 7.657-3.389 11.869 1.595 2.874 4.571 4.493 7.64 4.493a8.65 8.65 0 0 0 4.234-1.1l35.765-19.875c4.216-2.344 5.734-7.657 3.389-11.869s-7.65-5.746-11.874-3.393zm-71.534 39.742l-35.768 19.875a8.73 8.73 0 0 0-3.389 11.869c1.595 2.874 4.571 4.493 7.64 4.493a8.65 8.65 0 0 0 4.234-1.1l35.768-19.875a8.73 8.73 0 0 0 3.389-11.869c-2.337-4.211-7.653-5.746-11.874-3.393zM473 352.153a8.73 8.73 0 0 0-8.731 8.731v16.695l-14.589 8.109c-4.216 2.344-5.734 7.657-3.389 11.878 1.595 2.865 4.571 4.485 7.64 4.485 1.436 0 2.89-.349 4.234-1.1l19.078-10.607a8.73 8.73 0 0 0 4.489-7.631v-21.828a8.73 8.73 0 0 0-8.732-8.732z"/><use xlink:href="#B"/><use xlink:href="#B" y="83.91"/><path d="M477.241 121.648l-19.078-10.599c-4.216-2.353-9.532-.819-11.873 3.393a8.73 8.73 0 0 0 3.389 11.869l14.589 8.109v16.686a8.731 8.731 0 1 0 17.462 0v-21.828a8.72 8.72 0 0 0-4.489-7.63zM306.61 46.827l35.768 19.875c1.342.751 2.801 1.1 4.234 1.1 3.07 0 6.045-1.62 7.64-4.493a8.73 8.73 0 0 0-3.389-11.869l-35.768-19.875c-4.22-2.353-9.537-.819-11.873 3.393-2.347 4.213-.825 9.525 3.388 11.869zm71.533 39.742l35.768 19.875c1.342.751 2.801 1.1 4.234 1.1 3.07 0 6.045-1.62 7.64-4.493a8.73 8.73 0 0 0-3.389-11.869l-35.769-19.875c-4.216-2.353-9.537-.819-11.873 3.393-2.345 4.213-.824 9.525 3.389 11.869z"/></g><path d="M57.895 139.852c-2.357 4.212-.852 9.525 3.355 11.886l3.942 2.206 34.154 19.11c1.347.751 2.814 1.109 4.254 1.109 2.901 0 5.704-1.461 7.351-4.045.091-.142.193-.274.276-.423 2.357-4.212.852-9.525-3.355-11.886l-33.023-18.478-5.073-2.839c-4.216-2.344-9.537-.844-11.881 3.36zm79.549 54.519l38.096 21.316c1.347.751 2.814 1.109 4.254 1.109 2.985 0 5.872-1.542 7.496-4.267l.131-.201c2.357-4.212.852-9.525-3.355-11.886l-38.096-21.316a8.74 8.74 0 0 0-11.882 3.359c-.07.126-.126.254-.189.382-2.065 4.147-.538 9.212 3.545 11.504zm76.196 42.632l33.814 18.919 4.283 2.397c.226.126.459.225.692.329l.27.128c.289.118.584.212.88.297l.189.062c.341.091.683.156 1.027.204.026.003.052.011.079.015.373.048.747.074 1.119.074a8.83 8.83 0 0 0 1.137-.074c.026-.003.052-.011.079-.015.344-.048.688-.114 1.027-.204.064-.017.126-.044.189-.062l.88-.297c.092-.037.179-.087.27-.128l.692-.329 4.283-2.397 33.814-18.919a8.73 8.73 0 0 0 3.427-11.74l-.072-.146c-2.353-4.204-7.665-5.705-11.882-3.359l-33.833 18.931-33.833-18.931c-4.22-2.353-9.537-.844-11.882 3.359-.027.048-.046.097-.072.146-2.249 4.188-.737 9.405 3.423 11.74zm118.566-20.207c1.441 0 2.907-.358 4.254-1.109l38.096-21.316c4.083-2.292 5.61-7.357 3.544-11.504-.063-.127-.119-.256-.189-.382-2.357-4.195-7.674-5.705-11.882-3.359l-38.096 21.316c-4.207 2.362-5.712 7.674-3.355 11.886.039.071.09.131.131.201 1.625 2.724 4.511 4.267 7.497 4.267zm68.566-47.102c.084.15.186.281.276.423a8.72 8.72 0 0 0 7.351 4.045c1.441 0 2.907-.358 4.254-1.109l34.154-19.11 3.942-2.206c4.207-2.362 5.712-7.674 3.355-11.886-2.353-4.204-7.669-5.696-11.882-3.359l-5.073 2.839-33.023 18.478c-4.207 2.362-5.712 7.674-3.354 11.885zM247.269 284.99v43.656a8.731 8.731 0 1 0 17.462 0V284.99a8.731 8.731 0 1 0-17.462 0zm0 87.312v43.656a8.731 8.731 0 1 0 17.462 0v-43.656a8.731 8.731 0 1 0-17.462 0zm8.732 78.58a8.73 8.73 0 0 0-8.731 8.731v8.845 2.068a8.731 8.731 0 1 0 17.462 0v-2.068-8.845a8.73 8.73 0 0 0-8.731-8.731z" fill="#fff"/><defs ><path id="B" d="M473 184.334a8.73 8.73 0 0 0-8.731 8.731v41.959a8.73 8.73 0 1 0 17.462 0v-41.959a8.73 8.73 0 0 0-8.731-8.731z"/></defs></svg>